<svg xmlns="http://www.w3.org/2000/svg" width="130.516" height="40" viewBox="0 0 130.516 40">
  <path id="Unione_58" data-name="Unione 58" d="M-47.813,28c-2.386,0-3.6-.529-4.479-1.7-.942-1.242-.942-3.145-.942-4.932V-11.984h7.3V22.44c0,2.731.292,4.667,3.782,5.446V28Zm-13.94,0c-2.386,0-3.6-.529-4.48-1.7-.941-1.242-.941-3.145-.941-4.932V-11.984h7.3V22.44c0,2.731.291,4.667,3.781,5.446V28Zm-46.24-.129c-.032-.1.049-.163.406-.342.073-.035.185-.085.326-.15a19.375,19.375,0,0,0,2.807-1.479,4.457,4.457,0,0,0,2.126-2.687,5.757,5.757,0,0,0-.381-.874c-.755-1.529-2.069-4.2.073-8.426.378-.753.736-1.419,1.066-2.034.491-.916.922-1.718,1.272-2.527a20.069,20.069,0,0,0,1.315-5.358c.016-.1.032-.1.081-.032,1.282,1.3,6.249,6.417,5.519,11.515a30.655,30.655,0,0,0,5.827-3.6c.309-.242.594-.485.867-.718a4.713,4.713,0,0,1,2.915-1.53,2.563,2.563,0,0,1,1.459.385,2.6,2.6,0,0,0,1.024.364,1.777,1.777,0,0,0,.844-.114c.081-.032.065-.13-.065-.163a3.962,3.962,0,0,1-1.411-.714,3.46,3.46,0,0,0-2.224-.8,5.35,5.35,0,0,0-3.164,1.566c-.282.23-.542.443-.78.6l-4.691-9.8C-94.733-3.156-94.149-6.137-89.831-12L-71,27.984h-9.137l-6.719-14.657c-2.058,1.124-3.621,3.073-5.252,5.109a30.261,30.261,0,0,1-4.227,4.582,21.709,21.709,0,0,1-6.866,3.893,27.92,27.92,0,0,1-4.171,1.059c-.1.009-.189.015-.267.015C-107.834,27.984-107.959,27.953-107.994,27.872Zm126.712-.435a2.819,2.819,0,0,1-1.039-1.059l.925-.7a1.969,1.969,0,0,0,1.608.962,1.061,1.061,0,0,0,.681-.2.652.652,0,0,0,.244-.537.589.589,0,0,0-.114-.358.842.842,0,0,0-.26-.229l-.073-.037c-.093-.049-.221-.115-.4-.191l-.714-.326a3.591,3.591,0,0,1-1.185-.8,1.554,1.554,0,0,1-.407-1.107,1.7,1.7,0,0,1,.617-1.351,2.366,2.366,0,0,1,1.558-.522,2.817,2.817,0,0,1,1.3.375,2.425,2.425,0,0,1,.86.912l-.909.716a1.5,1.5,0,0,0-1.25-.766.99.99,0,0,0-.584.163.521.521,0,0,0-.227.472.507.507,0,0,0,.178.408,2.549,2.549,0,0,0,.6.342l.747.326a3.8,3.8,0,0,1,1.234.814,1.63,1.63,0,0,1,.405,1.108,1.746,1.746,0,0,1-.65,1.433,2.528,2.528,0,0,1-1.654.537A2.884,2.884,0,0,1,18.718,27.437Zm-7.354,0a2.83,2.83,0,0,1-1.038-1.059l.925-.7a1.969,1.969,0,0,0,1.607.962,1.06,1.06,0,0,0,.681-.2.652.652,0,0,0,.244-.537.588.588,0,0,0-.113-.358.842.842,0,0,0-.26-.229l-.072-.037c-.094-.049-.222-.115-.4-.191l-.714-.326a3.611,3.611,0,0,1-1.185-.8,1.553,1.553,0,0,1-.405-1.107,1.7,1.7,0,0,1,.617-1.351,2.367,2.367,0,0,1,1.558-.522,2.71,2.71,0,0,1,1.3.375,2.439,2.439,0,0,1,.86.912l-.91.716a1.5,1.5,0,0,0-1.249-.766,1,1,0,0,0-.585.163A.521.521,0,0,0,12,22.86a.507.507,0,0,0,.178.408,2.569,2.569,0,0,0,.6.342l.747.326a3.794,3.794,0,0,1,1.234.814,1.63,1.63,0,0,1,.405,1.108,1.742,1.742,0,0,1-.649,1.433,2.531,2.531,0,0,1-1.655.537A2.889,2.889,0,0,1,11.364,27.437Zm-8.129.309v-6.6H7.666v1.206H4.583v1.336H6.838v1.156H4.583v1.678h3.2v1.222Zm-7.013,0v-6.6h1.347v5.375H.442v1.222Zm-12.4,0v-6.6h1.347v6.6Zm-14.687,0v-6.6h1.347v6.6Zm-7.013,0v-6.6h1.347v5.375h2.872v1.222Zm16.9,0V24.212L-22.638,26.3h-.438l-1.655-2.084v3.534h-1.347V21.133h.519l2.695,3.469,2.694-3.469h.536v6.612Zm10.989-.016V22.355H-12.1V21.149h5.567v1.206h-2.11V27.73ZM-17.72,12.9v-6.6h4.431V7.513h-3.084V8.848h2.257V10h-2.257v1.678h3.2V12.9Zm-13.145,0v-6.6h1.347v6.6Zm-7.013,0v-6.6h1.347v5.374h2.872V12.9Zm13.989-.016-2.888-6.6h1.525l1.639,4.007,1.64-4.007h1.509l-2.873,6.6ZM-10.48-2.391A3.237,3.237,0,0,1-11.5-4.833,3.228,3.228,0,0,1-10.48-7.26a3.451,3.451,0,0,1,2.467-.977A3.45,3.45,0,0,1-5.53-7.26,3.23,3.23,0,0,1-4.508-4.833,3.29,3.29,0,0,1-5.53-2.391a3.463,3.463,0,0,1-2.483.978A3.4,3.4,0,0,1-10.48-2.391ZM-9.522-6.4a2.11,2.11,0,0,0-.6,1.564,2.111,2.111,0,0,0,.6,1.564A2.026,2.026,0,0,0-8-2.668a2.04,2.04,0,0,0,1.509-.6,2.115,2.115,0,0,0,.6-1.564,2.114,2.114,0,0,0-.6-1.564A2.038,2.038,0,0,0-8-7,2.048,2.048,0,0,0-9.522-6.4Zm-9.967,3.99A3.224,3.224,0,0,1-20.5-4.85a3.23,3.23,0,0,1,1.023-2.426,3.464,3.464,0,0,1,2.483-.977,3.33,3.33,0,0,1,1.7.439,3.173,3.173,0,0,1,1.2,1.206l-1.023.717A2.144,2.144,0,0,0-16.99-7a2.049,2.049,0,0,0-1.525.6,2.112,2.112,0,0,0-.6,1.564,2.05,2.05,0,0,0,.6,1.546,2.049,2.049,0,0,0,1.525.6,2.144,2.144,0,0,0,1.883-1.107l1.023.717a3.064,3.064,0,0,1-1.2,1.206,3.435,3.435,0,0,1-1.721.439A3.41,3.41,0,0,1-19.489-2.407Zm-8.975,0A3.224,3.224,0,0,1-29.471-4.85a3.227,3.227,0,0,1,1.023-2.426,3.462,3.462,0,0,1,2.483-.977,3.333,3.333,0,0,1,1.7.439,3.173,3.173,0,0,1,1.2,1.206l-1.023.717A2.145,2.145,0,0,0-25.965-7a2.048,2.048,0,0,0-1.525.6,2.113,2.113,0,0,0-.6,1.564,2.05,2.05,0,0,0,.6,1.546,2.048,2.048,0,0,0,1.525.6,2.145,2.145,0,0,0,1.883-1.107l1.023.717a3.064,3.064,0,0,1-1.2,1.206,3.435,3.435,0,0,1-1.721.439A3.408,3.408,0,0,1-28.464-2.407Zm31.147.88L.979-3.856h-.99v2.329H-1.358v-6.6H1.108a2.467,2.467,0,0,1,1.7.587A1.988,1.988,0,0,1,3.478-5.99a1.921,1.921,0,0,1-.308,1.107,2.1,2.1,0,0,1-.843.749L4.192-1.527ZM-.028-5.045H1.108a.984.984,0,0,0,.731-.26A.929.929,0,0,0,2.1-5.99a.931.931,0,0,0-.277-.684.98.98,0,0,0-.73-.261H-.028Zm-32.98,3.519-.374-.864h-2.694l-.374.864h-1.445L-35-8.124h.552l2.888,6.6ZM-35.573-3.5h1.737l-.876-2.215Z" transform="translate(108 12)" fill="#ffffff"/>
</svg>
